<?xml version="1.0" encoding="UTF-8" standalone="no"?>
<!DOCTYPE svg PUBLIC "-//W3C//DTD SVG 1.1//EN" "http://www.w3.org/Graphics/SVG/1.1/DTD/svg11.dtd">
<svg xmlns:xl="http://www.w3.org/1999/xlink" xmlns="http://www.w3.org/2000/svg" xmlns:dc="http://purl.org/dc/elements/1.1/" version="1.1" viewBox="325.74673 62.27098 855.1485 827.0755" width="855.1485" height="827.0755">
  <defs/>
  <g id="Canvas_1" stroke-opacity="1" fill-opacity="1" stroke="none" fill="none" stroke-dasharray="none">
    <title>Canvas 1</title>
    <g id="Canvas_1_IPv4_image">
      <title>IPv4 image</title>
      <g id="Group_16">
        <title>IPv4 image</title>
        <g id="Graphic_4">
          <title>Circle</title>
          <path d="M 1179.3039 281.95578 C 1179.3042 403.2847 1080.948 501.6409 959.619 501.6406 C 838.2901 501.6409 739.9339 403.2847 739.93425 281.95578 C 739.9339 160.62686 838.2901 62.27067 959.619 62.27098 C 1080.948 62.27067 1179.3042 160.62686 1179.3039 281.95578" fill="#008ec4"/>
        </g>
        <g id="Graphic_6">
          <title>Circle</title>
          <path d="M 923.5052 434.28997 C 923.5054 498.4769 871.4718 550.5105 807.2849 550.5103 C 743.09795 550.5105 691.06436 498.4769 691.0645 434.28997 C 691.06436 370.10306 743.09795 318.06946 807.2849 318.06962 C 871.4718 318.06946 923.5054 370.10306 923.5052 434.28997" fill="#008ec4"/>
        </g>
        <g id="Line_10">
          <line x1="834.1858" y1="373.33087" x2="889.6235" y2="247.70602" stroke="#0cc30a" stroke-linecap="round" stroke-linejoin="round" stroke-width="40"/>
        </g>
        <g id="Line_11">
          <line x1="868.244" y1="407.389" x2="993.8688" y2="351.9513" stroke="#0cc30a" stroke-linecap="round" stroke-linejoin="round" stroke-width="40"/>
        </g>
        <g id="Graphic_7">
          <path d="M 873.899 434.28997 C 873.8991 471.08003 844.0749 500.90417 807.2849 500.9041 C 770.4948 500.90417 740.6707 471.08003 740.6708 434.28997 C 740.6707 397.4999 770.4948 367.67577 807.2849 367.67587 C 844.0749 367.67577 873.8991 397.4999 873.899 434.28997" fill="white"/>
        </g>
        <g id="Graphic_8">
          <path d="M 983.1386 186.74691 C 983.1387 223.53697 953.3146 253.3611 916.5245 253.361 C 879.7345 253.3611 849.9103 223.53697 849.9104 186.74691 C 849.9103 149.95685 879.7345 120.13272 916.5245 120.13281 C 953.3146 120.13272 983.1387 149.95685 983.1386 186.74691" fill="white"/>
        </g>
        <g id="Graphic_9">
          <path d="M 1121.442 325.05032 C 1121.4421 361.8404 1091.618 391.6645 1054.8279 391.6644 C 1018.0379 391.6645 988.2137 361.8404 988.2138 325.05032 C 988.2137 288.26026 1018.0379 258.43613 1054.8279 258.43622 C 1091.618 258.43613 1121.4421 288.26026 1121.442 325.05032" fill="white"/>
        </g>
      </g>
    </g>
    <g id="Canvas_1_IPv4_text_as_shapes">
      <title>IPv4 text as shapes</title>
      <g id="Group_39">
        <title>IPv4</title>
        <g id="Graphic_35">
          <rect x="362.54757" y="520.13647" width="51.00997" height="282.21" fill="#0cc30a"/>
        </g>
        <g id="Graphic_36">
          <path d="M 579.9982 516.33405 C 604.75984 516.33405 624.2841 518.984 638.57145 524.284 C 652.8588 529.58397 663.0624 538.75016 669.18254 551.78284 C 675.30266 564.8155 678.3627 583.1969 678.3627 606.92755 C 678.3627 630.5772 675.4102 648.9469 669.5053 662.0371 C 663.6003 675.1273 653.9346 684.27325 640.5078 689.47525 C 627.081 694.67724 609.06285 697.2782 586.4527 697.2782 C 574.3701 697.2782 562.62745 696.8681 551.2244 696.048 C 539.8213 695.2279 529.3035 694.1436 519.6707 692.7952 C 510.0378 691.44675 501.81956 690.0099 495.01564 688.4847 C 488.2117 686.9595 483.46354 685.5919 480.77094 684.3819 L 481.99794 657.09395 C 497.39516 657.09395 513.3769 657.09395 529.9436 657.09395 C 546.5103 657.09395 562.90104 657.09395 579.1163 657.09395 C 591.1733 656.898 600.69205 655.4292 607.6728 652.6876 C 614.6535 649.946 619.5913 644.9294 622.48624 637.6377 C 625.3812 630.34595 626.8287 620.10934 626.8287 606.92755 C 626.8287 593.4688 625.3812 583.1225 622.48624 575.8883 C 619.5913 568.65406 614.6535 563.6183 607.6728 560.78084 C 600.69205 557.9434 591.1733 556.5247 579.1163 556.5247 C 555.1811 556.5247 534.6099 556.661 517.402 556.9337 C 500.1941 557.20635 488.5292 557.6537 482.40694 558.2757 L 476.5659 520.13647 C 487.55784 518.96485 497.8477 518.1064 507.4358 517.56105 C 517.02394 517.0157 527.48955 516.6749 538.83296 516.53855 C 550.1764 516.4022 563.898 516.33405 579.9982 516.33405 Z M 527.80594 520.13647 L 527.80594 802.3465 L 476.5659 802.3465 L 476.5659 520.13647 Z" fill="#0cc30a"/>
        </g>
        <g id="Graphic_37">
          <path d="M 913.9914 601.6233 L 844.7362 790.4471 C 843.4069 794.1196 841.3258 797.0209 838.4926 799.1512 C 835.6594 801.2814 832.2319 802.3465 828.21 802.3465 L 784.6579 802.3465 C 780.8278 802.3465 777.4472 801.2814 774.516 799.1512 C 771.5848 797.0209 769.4568 794.1196 768.1318 790.4471 L 698.8766 601.6233 L 751.5801 601.6233 L 793.6879 733.4108 C 795.63065 739.2945 797.3987 745.3144 798.9921 751.4707 C 800.5855 757.627 802.1789 763.549 803.7723 769.2366 L 809.0893 769.2366 C 810.8787 763.353 812.6574 757.3821 814.4255 751.3237 C 816.1936 745.2654 817.9147 739.2945 819.5891 733.4108 L 861.5755 601.6233 Z" fill="#0cc30a"/>
        </g>
        <g id="Graphic_38">
          <path d="M 1060.276 520.13647 L 987.6082 684.5225 C 985.5462 689.26864 985.5366 692.9347 987.5795 695.5208 C 989.6223 698.1069 992.725 699.3999 996.8874 699.3999 L 1161.0945 699.3999 L 1161.0945 731.67255 L 1125.2367 736.6508 L 962.5378 736.6508 C 954.9031 736.6508 948.4369 734.5292 943.139 730.2858 C 937.8412 726.0424 934.3637 720.5518 932.7064 713.81394 C 931.049 707.0761 931.6796 700.2584 934.598 693.36075 L 1011.3366 520.13647 Z M 1125.8758 574.5974 L 1125.8758 802.3465 L 1078.451 802.3465 L 1078.451 620.27756 L 1086.9505 574.5974 Z" fill="#0cc30a"/>
        </g>
      </g>
    </g>
  </g>
</svg>
