<?xml version="1.0" encoding="UTF-8" standalone="no"?>
<!DOCTYPE svg PUBLIC "-//W3C//DTD SVG 1.1//EN" "http://www.w3.org/Graphics/SVG/1.1/DTD/svg11.dtd">
<svg xmlns:xl="http://www.w3.org/1999/xlink" xmlns="http://www.w3.org/2000/svg" xmlns:dc="http://purl.org/dc/elements/1.1/" version="1.1" viewBox="325.74673 62.27098 855.1485 827.0755" width="855.1485" height="827.0755">
  <defs/>
  <g id="Canvas_1" stroke-opacity="1" fill-opacity="1" stroke="none" fill="none" stroke-dasharray="none">
    <title>Canvas 1</title>
    <g id="Canvas_1_IPv6_image">
      <title>IPv6 image</title>
      <g id="Group_20">
        <title>IPv6 image</title>
        <g id="Graphic_27">
          <title>Circle</title>
          <path d="M 1179.3039 281.95578 C 1179.3042 403.2847 1080.948 501.6409 959.619 501.6406 C 838.2901 501.6409 739.9339 403.2847 739.93425 281.95578 C 739.9339 160.62686 838.2901 62.27067 959.619 62.27098 C 1080.948 62.27067 1179.3042 160.62686 1179.3039 281.95578" fill="#008ec4"/>
        </g>
        <g id="Graphic_26">
          <title>Circle</title>
          <path d="M 923.5052 434.28997 C 923.5054 498.4769 871.4718 550.5105 807.2849 550.5103 C 743.09795 550.5105 691.06436 498.4769 691.0645 434.28997 C 691.06436 370.10306 743.09795 318.06946 807.2849 318.06962 C 871.4718 318.06946 923.5054 370.10306 923.5052 434.28997" fill="#0090c8"/>
        </g>
        <g id="Line_25">
          <line x1="834.1858" y1="373.33087" x2="889.6235" y2="247.70602" stroke="#a49" stroke-linecap="round" stroke-linejoin="round" stroke-width="40"/>
        </g>
        <g id="Line_24">
          <line x1="868.244" y1="407.389" x2="993.8688" y2="351.9513" stroke="#a49" stroke-linecap="round" stroke-linejoin="round" stroke-width="40"/>
        </g>
        <g id="Graphic_23">
          <path d="M 873.899 434.28997 C 873.8991 471.08003 844.0749 500.90417 807.2849 500.9041 C 770.4948 500.90417 740.6707 471.08003 740.6708 434.28997 C 740.6707 397.4999 770.4948 367.67577 807.2849 367.67587 C 844.0749 367.67577 873.8991 397.4999 873.899 434.28997" fill="white"/>
        </g>
        <g id="Graphic_22">
          <path d="M 983.1386 186.74691 C 983.1387 223.53697 953.3146 253.3611 916.5245 253.361 C 879.7345 253.3611 849.9103 223.53697 849.9104 186.74691 C 849.9103 149.95685 879.7345 120.13272 916.5245 120.13281 C 953.3146 120.13272 983.1387 149.95685 983.1386 186.74691" fill="white"/>
        </g>
        <g id="Graphic_21">
          <path d="M 1121.442 325.05032 C 1121.4421 361.8404 1091.618 391.6645 1054.8279 391.6644 C 1018.0379 391.6645 988.2137 361.8404 988.2138 325.05032 C 988.2137 288.26026 1018.0379 258.43613 1054.8279 258.43622 C 1091.618 258.43613 1121.4421 288.26026 1121.442 325.05032" fill="white"/>
        </g>
      </g>
    </g>
    <g id="Canvas_1_IPv6_text_as_shapes">
      <title>IPv6 text as shapes</title>
      <g id="Group_33">
        <title>IPv6</title>
        <g id="Graphic_29">
          <rect x="362.31003" y="520.13647" width="51.00997" height="282.21" fill="#a49"/>
        </g>
        <g id="Graphic_30">
          <path d="M 579.7606 516.33405 C 604.5223 516.33405 624.0465 518.984 638.3339 524.284 C 652.6213 529.58397 662.8249 538.75016 668.945 551.78284 C 675.0651 564.8155 678.1251 583.1969 678.1251 606.92755 C 678.1251 630.5772 675.1727 648.9469 669.2677 662.0371 C 663.36276 675.1273 653.697 684.27325 640.2703 689.47525 C 626.8435 694.67724 608.8253 697.2782 586.21516 697.2782 C 574.13256 697.2782 562.3899 696.8681 550.98684 696.048 C 539.5838 695.2279 529.066 694.1436 519.4331 692.7952 C 509.8003 691.44675 501.582 690.0099 494.7781 688.4847 C 487.9742 686.9595 483.226 685.5919 480.5334 684.3819 L 481.7604 657.09395 C 497.1576 657.09395 513.13935 657.09395 529.70606 657.09395 C 546.2728 657.09395 562.6635 657.09395 578.8787 657.09395 C 590.93576 656.898 600.4545 655.4292 607.4352 652.6876 C 614.41596 649.946 619.3537 644.9294 622.2487 637.6377 C 625.1437 630.34595 626.5911 620.10934 626.5911 606.92755 C 626.5911 593.4688 625.1437 583.1225 622.2487 575.8883 C 619.3537 568.65406 614.41596 563.6183 607.4352 560.78084 C 600.4545 557.9434 590.93576 556.5247 578.8787 556.5247 C 554.9436 556.5247 534.37237 556.661 517.16446 556.9337 C 499.95655 557.20635 488.29165 557.6537 482.1694 558.2757 L 476.32836 520.13647 C 487.3203 518.96485 497.61016 518.1064 507.1983 517.56105 C 516.7864 517.0157 527.252 516.6749 538.5954 516.53855 C 549.93884 516.4022 563.66044 516.33405 579.7606 516.33405 Z M 527.5684 520.13647 L 527.5684 802.3465 L 476.32836 802.3465 L 476.32836 520.13647 Z" fill="#a49"/>
        </g>
        <g id="Graphic_31">
          <path d="M 913.7539 601.6233 L 844.4987 790.4471 C 843.1694 794.1196 841.0882 797.0209 838.255 799.1512 C 835.4218 801.2814 831.9944 802.3465 827.9725 802.3465 L 784.4204 802.3465 C 780.5903 802.3465 777.2097 801.2814 774.2785 799.1512 C 771.3473 797.0209 769.2192 794.1196 767.8942 790.4471 L 698.639 601.6233 L 751.3425 601.6233 L 793.45035 733.4108 C 795.3931 739.2945 797.1612 745.3144 798.7546 751.4707 C 800.348 757.627 801.94135 763.549 803.5348 769.2366 L 808.8518 769.2366 C 810.6411 763.353 812.4198 757.3821 814.1879 751.3237 C 815.956 745.2654 817.6772 739.2945 819.3516 733.4108 L 861.338 601.6233 Z" fill="#a49"/>
        </g>
        <g id="Graphic_32">
          <path d="M 1057.0668 515.22847 C 1063.4234 515.22847 1072.334 515.5203 1083.7988 516.104 C 1095.2636 516.68766 1107.2736 518.7156 1119.8292 522.18786 L 1116.5572 556.0518 C 1109.9279 555.6641 1103.8345 555.3733 1098.2768 555.17946 C 1092.719 554.9856 1086.762 554.8887 1080.4054 554.8887 C 1074.0488 554.8887 1066.2694 554.8887 1057.0668 554.8887 C 1044.2642 554.8887 1033.6229 556.2701 1025.1425 559.033 C 1016.662 561.7959 1009.9924 567.08835 1005.1334 574.9105 C 1000.2744 582.7327 996.8746 594.21226 994.934 609.3496 C 992.9933 624.4869 992.023 644.4319 992.023 669.185 C 992.023 688.6893 992.4896 704.8617 993.4226 717.7026 C 994.3556 730.5436 996.5029 740.5725 999.8643 747.7897 C 1003.2258 755.0069 1008.3372 760.1119 1015.1986 763.1048 C 1022.0601 766.0978 1031.4595 767.59425 1043.3973 767.59425 C 1057.3545 767.59425 1067.6475 765.4268 1074.2768 761.0918 C 1080.906 756.7568 1085.1621 750.2331 1087.0452 741.5205 C 1088.9284 732.8079 1089.8699 721.9716 1089.8699 709.0114 C 1089.8699 695.4376 1088.6355 684.7452 1086.1665 676.93365 C 1083.6976 669.1221 1079.1784 663.51655 1072.6088 660.1167 C 1066.0392 656.7169 1056.6685 655.017 1044.4965 655.017 C 1036.2866 655.017 1028.7383 656.0288 1021.8513 658.05255 C 1014.9643 660.07625 1007.7643 663.5879 1000.251 668.5875 C 992.7377 673.5871 983.6833 680.57945 973.0876 689.5647 L 971.4516 668.2584 C 980.5264 655.04676 989.1536 644.7494 997.3337 637.3661 C 1005.5137 629.98275 1014.4828 624.8405 1024.2414 621.9391 C 1033.9999 619.0378 1045.5423 617.5871 1058.869 617.5871 C 1079.4043 617.5871 1095.3988 620.5864 1106.853 626.5851 C 1118.3072 632.5838 1126.3912 642.1931 1131.1054 655.4132 C 1135.8196 668.63336 1138.1766 686.3011 1138.1766 708.4171 C 1138.1766 724.12956 1136.9486 738.1334 1134.4924 750.429 C 1132.0363 762.72465 1127.4159 773.0987 1120.6312 781.5514 C 1113.8464 790.0041 1104.218 796.401 1091.7456 800.7424 C 1079.2731 805.0838 1062.9804 807.2545 1042.8669 807.2545 C 1022.5701 807.2545 1005.8546 805.0444 992.7196 800.6242 C 979.5847 796.204 969.3822 788.7164 962.1117 778.16115 C 954.8413 767.6059 949.7139 753.2602 946.7295 735.1235 C 943.745 716.9868 942.2529 694.2428 942.2529 666.8908 C 942.2529 633.94055 944.6206 607.45594 949.356 587.43614 C 954.0915 567.41634 961.1946 552.1972 970.6656 541.7783 C 980.1365 531.3594 992.072 524.3298 1006.4722 520.68926 C 1020.8725 517.0487 1037.7372 515.22847 1057.0668 515.22847 Z" fill="#a49"/>
        </g>
      </g>
    </g>
  </g>
</svg>
